<?xml version="1.0" encoding="utf-8"?>
<!-- Generator: Adobe Adobe Illustrator 24.2.0, SVG Export Plug-In . SVG Version: 6.00 Build 0)  -->
<svg version="1.1" id="Layer_1" xmlns="http://www.w3.org/2000/svg" xmlns:xlink="http://www.w3.org/1999/xlink" x="0px" y="0px"
	 width="1000px" height="1000px" viewBox="0 0 1000 1000" style="enable-background:new 0 0 1000 1000;" xml:space="preserve">
<style type="text/css">
	.st0{fill:#DE214D;}
</style>
<g>
	<path d="M195.49,508.94c0.47-1.24,0.93-2.41,1.24-3.65h22.55c-1.4,5.68-3.03,11.04-5.21,16.79c-12.44,2.33-24.49,3.19-36.39,3.19
		c-11.9,0-23.4-0.86-34.91-3.19c0.47-7.54,1.4-14.62,2.95-22.08c1.63-7.46,3.65-14.54,6.45-22.08c12.44-2.33,24.41-3.19,36.31-3.19
		c11.89,0,23.56,0.62,35.14,2.41c-0.39,6.14-1.01,11.9-2.1,17.8h-22.62c0.23-1.24,0.23-2.49,0.39-3.89
		c-4.12-0.78-9.95-0.78-14.15-0.78c-4.28,0-10.03,0-14.46,0.78c-1.01,3.11-1.71,5.83-2.41,8.94c-0.62,3.11-1.01,5.83-1.4,8.94
		c4.12,0.78,9.87,0.78,14.15,0.78C185.23,509.72,191.06,509.72,195.49,508.94z"/>
	<path d="M258.4,492.07h30.48l3.5-16.56h21.77l-10.34,48.98h-21.77l3.34-16.09H254.9l-3.34,16.09h-21.77l8.47-40.04l-9.25-7.39
		l0.31-1.55h32.58L258.4,492.07z"/>
	<path d="M340.21,524.49h-21.77l8.47-40.04l-9.25-7.39l0.31-1.55h32.58L340.21,524.49z"/>
	<path d="M400.54,474.73c11.27,0,22.94,0.54,34.29,2.02c-0.08,5.91-0.86,11.97-2.1,17.8c-1.24,5.83-3.03,11.82-5.44,17.73
		c-11.9,0.93-23.79,1.24-35.22,1.24c-2.95,0-7.23,0-13.22-0.08l-2.33,11.04h-21.77l8.47-40.12l-9.25-7.31l0.31-1.55
		C368.75,474.89,386.32,474.73,400.54,474.73z M408.79,499.46c0.54-1.63,1.09-3.27,1.4-4.9c0.39-1.63,0.54-3.34,0.7-4.98
		c-2.02-0.16-10.19-0.31-13.61-0.31c-5.68,0-9.1,0.16-13.29,0.47h-0.08l-2.1,9.64l0.08-0.08c4.12,0.39,7.46,0.47,13.14,0.47
		C400.78,499.77,404.35,499.77,408.79,499.46z"/>
	<path d="M462.83,500c0.7-3.11,1.4-5.83,2.49-8.94c4.98-0.55,10.5-0.78,15.39-0.78c2.75,0,5.64,0.07,8.5,0.23l26.33-14.07
		c-10.39-1.21-20.86-1.71-31.48-1.71c-12.52,0-25.11,0.7-38.1,2.41c-2.25,7.78-4.2,15.16-5.83,22.86c-1.32,6.25-2.4,12.3-3.29,18.52
		l25.13-13.44C462.2,503.42,462.48,501.77,462.83,500z"/>
</g>
<g>
	<path class="st0" d="M495.47,493.98c-0.26,1.99-0.6,3.92-1.07,6.02c-0.62,3.11-1.32,5.83-2.41,8.94c-4.98,0.55-10.5,0.78-15.4,0.78
		c-3.21,0-6.63-0.1-9.96-0.33l-26.22,14.02c10.84,1.31,21.74,1.86,32.84,1.86c12.52,0,25.11-0.7,38.1-2.41
		c2.25-7.78,4.12-15.16,5.75-22.86c1.39-6.57,2.56-12.91,3.5-19.46L495.47,493.98z"/>
	<g>
		<path class="st0" d="M578.85,508.94c0.31-0.23,0.86-2.18,1.01-2.72h-12.28l2.64-12.28h34.44c-3.19,14.38-5.6,23.01-7.78,28.92
			c-12.52,1.79-24.8,2.41-36.85,2.41c-12.21,0-24.02-0.62-35.76-2.41c0.47-7.78,1.48-15.16,3.11-22.86
			c1.71-7.93,3.89-15.63,6.76-23.64c12.36-1.24,24.49-1.63,36.7-1.63c12.28,0,24.49,0.08,36.78,1.32l-3.19,15.01
			c-8.47-0.54-18.42-0.78-26.82-0.78h-7.08c-6.3,0-13.37,0.08-18.89,0.62c-1.01,3.11-1.79,5.99-2.49,9.1
			c-0.62,3.11-1.01,5.83-1.32,8.94c4.28,0.78,10.96,0.78,15.55,0.78C567.81,509.72,574.26,509.72,578.85,508.94z"/>
		<path class="st0" d="M634.29,524.49H612.6l8.47-40.04l-9.25-7.39l0.31-1.55h47.43c10.5,0,25.35,0.23,35.84,2.02
			c-0.23,4.98-0.54,10.26-1.63,15.24c-1.32,6.3-2.8,12.83-5.75,19.52l-8.86,0.39l10.5,11.82h-27.21l-21.07-23.17l0.31-1.55
			l20.29-0.08h0.86c2.26,0,4.51-0.08,6.76-0.23c0.54-1.63,1.09-3.27,1.4-4.9c0.39-1.63,0.54-3.34,0.7-4.98
			c-4.82-0.31-8.94-0.31-15.16-0.31h-14.69L634.29,524.49z"/>
		<path class="st0" d="M766.4,475.51l9.72,48.98h-21.69l-1.32-6.45h-35.22l-3.89,6.45h-21.77l24.65-39.57l0.16-0.47l-9.25-7.31
			l0.31-1.55c11.12-0.54,22.08-0.78,32.96-0.86h3.73C752.02,474.73,758.55,474.89,766.4,475.51z M734.91,490.51l-7.93,12.83h23.32
			l-2.49-12.83c-0.93-0.16-4.59-0.23-6.38-0.23C739.65,490.28,736,490.36,734.91,490.51z"/>
		<path class="st0" d="M779.63,524.49l8.47-40.04l-9.25-7.31l0.31-1.55c13.06-0.54,26.74-0.78,39.73-0.86h4.98
			c11.51,0,22.23,0.23,33.35,0.86l-3.27,15.47c-7.23-0.78-16.09-0.78-24.8-0.78c-5.44,0-13.68,0.08-20.6,0.47l-1.48,6.84h29.54
			l-2.88,13.76h-29.62l-2.72,13.14H779.63z"/>
	</g>
</g>
</svg>
