<?xml version="1.0" encoding="utf-8"?>
<!-- Generator: Adobe Adobe Illustrator 24.2.0, SVG Export Plug-In . SVG Version: 6.00 Build 0)  -->
<svg version="1.1" id="Layer_1" xmlns="http://www.w3.org/2000/svg" xmlns:xlink="http://www.w3.org/1999/xlink" x="0px" y="0px"
	 width="1000px" height="1000px" viewBox="0 0 1000 1000" style="enable-background:new 0 0 1000 1000;" xml:space="preserve">
<style type="text/css">
	.st0{fill:#DE214D;}
</style>
<g>
	<path d="M424.7,500c3.32-14.74,6.63-27.63,11.8-42.36c23.6-2.61,49.76-3.7,72.93-3.7c13.03,0,26.73,0.33,40.28,1.09l124.77-66.67
		c-49.24-5.73-98.85-8.1-149.18-8.1c-59.33,0-118.99,3.32-180.55,11.42c-10.66,36.87-19.9,71.84-27.63,108.33
		c-6.25,29.62-11.37,58.29-15.59,87.76l119.09-63.69C421.71,516.21,423.04,508.39,424.7,500z"/>
	<path class="st0" d="M579.37,471.47c-1.23,9.43-2.84,18.58-5.07,28.53c-2.94,14.74-6.25,27.63-11.42,42.36
		c-23.6,2.61-49.76,3.7-72.98,3.7c-15.21,0-31.42-0.47-47.2-1.56l-124.25,66.44c51.37,6.21,103.02,8.81,155.62,8.81
		c59.33,0,118.99-3.32,180.55-11.42c10.66-36.87,19.52-71.84,27.25-108.33c6.59-31.13,12.13-61.18,16.59-92.22L579.37,471.47z"/>
</g>
</svg>
